<svg width="250" height="40" viewBox="0 0 250 40" fill="none" xmlns="http://www.w3.org/2000/svg">
<path d="M102.538 20.8814V12.7891H105.675V7.93848H102.538V0H97.7379V7.93848H94.6504V12.8009H97.7379V20.8932C97.7379 25.3653 101.313 29.0092 105.725 29.0092V24.123C103.963 24.123 102.538 22.6679 102.538 20.8814Z" fill="#F04E4A"/>
<path d="M66.2246 8.48257H61.6621V28.9144H66.2246V17.9117C66.4371 16.3146 66.9746 14.954 68.1121 13.8656C68.8246 13.1676 69.7496 12.6943 70.5746 12.4459V7.79639C69.1246 8.04483 67.6746 8.63637 66.2246 9.57101V8.48257Z" fill="#F04E4A"/>
<path d="M53.625 8.48282H49.0625V28.9146H53.625V17.912C53.8375 16.3148 54.375 14.9543 55.5125 13.8658C56.225 13.1678 57.15 12.6946 57.975 12.4461V7.79663C56.525 8.04508 55.075 8.63662 53.625 9.57125V8.48282Z" fill="#F04E4A"/>
<path d="M83.0875 8.62476C77.15 8.62476 72.325 13.1915 72.325 18.8111C72.325 24.4307 77.15 28.9974 83.0875 28.9974C86.325 28.9974 89.35 27.6369 91.4125 25.2707C92.9875 23.4606 93.85 21.1654 93.85 18.8111C93.85 16.5396 93.075 14.3864 91.6125 12.5881C89.55 10.0799 86.45 8.62476 83.0875 8.62476ZM87.8375 22.5023C86.6625 23.851 84.925 24.6319 83.0875 24.6319C79.7 24.6319 76.9375 22.0172 76.9375 18.8111C76.9375 15.6049 79.7 12.9903 83.0875 12.9903C85.0125 12.9903 86.7875 13.8185 87.9625 15.2618C88.8 16.2911 89.2375 17.5097 89.2375 18.8111C89.2375 20.1716 88.75 21.4494 87.8375 22.5023Z" fill="#F04E4A"/>
<path d="M40.0125 10.4704C38.225 9.28728 36.0875 8.62476 33.8375 8.62476C27.9 8.62476 23.075 13.1915 23.075 18.8111C23.075 24.4307 27.9 28.9974 33.8375 28.9974C36.075 28.9974 38.225 28.3467 40.0125 27.1518V28.8318H44.625V8.62476H40.0125V10.4704ZM38.5875 22.5023C37.4125 23.851 35.675 24.6319 33.8375 24.6319C30.45 24.6319 27.6875 22.0172 27.6875 18.8111C27.6875 15.6049 30.45 12.9903 33.8375 12.9903C35.7625 12.9903 37.5375 13.8185 38.7125 15.2618C39.55 16.2911 39.9875 17.5097 39.9875 18.8111C39.9875 20.1716 39.5 21.4494 38.5875 22.5023Z" fill="#F04E4A"/>
<path d="M10.7875 8.62476C8.5375 8.62476 6.4 9.27545 4.6125 10.4704V8.62476H0V40.0001H4.6125V27.1518C6.4 28.3467 8.55 28.9974 10.7875 28.9974C16.725 28.9974 21.55 24.4307 21.55 18.8111C21.55 13.1915 16.725 8.62476 10.7875 8.62476ZM10.7875 24.6319C8.9375 24.6319 7.2125 23.851 6.0375 22.5023C5.125 21.4494 4.65 20.1716 4.65 18.8111C4.65 17.5097 5.0875 16.2793 5.925 15.2618C7.1 13.8185 8.875 12.9903 10.8 12.9903C14.1875 12.9903 16.95 15.6049 16.95 18.8111C16.9375 22.0172 14.175 24.6319 10.7875 24.6319Z" fill="#F04E4A"/>
<path d="M152.037 9.32267H156.8V11.121C158.462 9.57112 160.325 8.79028 162.4 8.79028C164.787 8.79028 166.65 9.50013 167.987 10.9198C169.137 12.1266 169.712 14.1023 169.712 16.8471V28.7489H164.95V17.9C164.95 15.9834 164.675 14.6584 164.112 13.9367C163.562 13.1913 162.562 12.8246 161.125 12.8246C159.55 12.8246 158.437 13.3215 157.775 14.3034C157.125 15.2736 156.8 16.9654 156.8 19.3907V28.7607H152.037V9.32267Z" fill="black"/>
<path d="M173.537 9.32267H178.3V11.121C179.962 9.57112 181.825 8.79028 183.9 8.79028C186.287 8.79028 188.15 9.50013 189.487 10.9198C190.637 12.1266 191.212 14.1023 191.212 16.8471V28.7489H186.45V17.9C186.45 15.9834 186.175 14.6584 185.612 13.9367C185.062 13.1913 184.062 12.8246 182.625 12.8246C181.05 12.8246 179.937 13.3215 179.275 14.3034C178.625 15.2736 178.3 16.9654 178.3 19.3907V28.7607H173.537V9.32267Z" fill="black"/>
<path d="M228.2 28.9977C222.262 28.9977 217.438 24.431 217.438 18.8113C217.438 13.1917 222.262 8.625 228.2 8.625C231.562 8.625 234.662 10.0684 236.725 12.5883L233.075 15.2621C231.9 13.8187 230.125 12.9906 228.2 12.9906C224.812 12.9906 222.05 15.6052 222.05 18.8113C222.05 22.0175 224.812 24.6321 228.2 24.6321C230.05 24.6321 231.775 23.8513 232.95 22.5026L236.512 25.271C234.462 27.6371 231.437 28.9977 228.2 28.9977Z" fill="black"/>
<path d="M249.963 12.8009V7.93848H246.825V0H242.025V7.93848H238.938V12.8009H242.025V20.8932C242.025 25.3653 245.6 29.0092 250.013 29.0092V24.123C248.263 24.123 246.838 22.6679 246.838 20.8932V12.8009H249.963Z" fill="black"/>
<path d="M204.762 29.0328C198.825 29.0328 194 24.4661 194 18.8465C194 13.2269 198.825 8.66016 204.762 8.66016C208.125 8.66016 211.225 10.1035 213.287 12.6235C214.55 14.1733 215.312 16.0308 215.487 17.9828L215.7 20.3727L198.788 20.2307C199.438 22.7743 201.875 24.6673 204.762 24.6673C206.612 24.6673 208.337 23.8864 209.512 22.5377C209.637 22.3957 209.75 22.2419 209.862 22.0881L213.687 24.5253C213.5 24.7974 213.287 25.0577 213.075 25.3061C211.025 27.6841 208 29.0328 204.762 29.0328ZM199.487 15.877L210.1 15.9716C209.962 15.7468 209.8 15.522 209.637 15.3091C208.462 13.8657 206.687 13.0376 204.762 13.0376C202.525 13.0376 200.562 14.1733 199.487 15.877Z" fill="black"/>
<path d="M138.962 8.62476C133.025 8.62476 128.2 13.1915 128.2 18.8111C128.2 24.4307 133.025 28.9974 138.962 28.9974C142.2 28.9974 145.225 27.6369 147.287 25.2707C148.862 23.4606 149.725 21.1654 149.725 18.8111C149.725 16.5396 148.95 14.3864 147.487 12.5881C145.425 10.0799 142.312 8.62476 138.962 8.62476ZM143.712 22.5023C142.537 23.851 140.8 24.6319 138.962 24.6319C135.575 24.6319 132.812 22.0172 132.812 18.8111C132.812 15.6049 135.575 12.9903 138.962 12.9903C140.887 12.9903 142.662 13.8185 143.837 15.2618C144.675 16.2911 145.112 17.5097 145.112 18.8111C145.1 20.1716 144.625 21.4494 143.712 22.5023Z" fill="black"/>
<path d="M121.975 24.064C121.938 24.0758 121.9 24.0995 121.863 24.1113C121.838 24.1231 121.813 24.1349 121.8 24.1349C121.763 24.1468 121.738 24.1586 121.7 24.1704C121.163 24.3834 120.588 24.5254 120 24.5963C119.95 24.5963 119.9 24.6082 119.85 24.6082C119.838 24.6082 119.838 24.6082 119.825 24.6082C119.775 24.6082 119.738 24.62 119.688 24.62C119.675 24.62 119.663 24.62 119.65 24.62C119.613 24.62 119.563 24.62 119.525 24.62C119.513 24.62 119.5 24.62 119.475 24.62C119.425 24.62 119.375 24.62 119.325 24.62H119.313C115.925 24.62 113.163 22.0054 113.163 18.7992C113.163 15.5931 115.925 12.9785 119.313 12.9785H119.325C119.375 12.9785 119.425 12.9785 119.475 12.9785C119.488 12.9785 119.5 12.9785 119.525 12.9785C119.563 12.9785 119.613 12.9785 119.65 12.9785C119.663 12.9785 119.675 12.9785 119.688 12.9785C119.738 12.9785 119.775 12.9785 119.813 12.9903C119.825 12.9903 119.825 12.9903 119.838 12.9903C119.888 12.9903 119.938 13.0021 119.988 13.0021C119.988 13.0021 119.988 13.0021 120 13.0021C120.588 13.0613 121.163 13.2033 121.7 13.428C121.738 13.4399 121.763 13.4517 121.8 13.4635C121.825 13.4754 121.85 13.4872 121.863 13.4872C121.9 13.499 121.938 13.5227 121.975 13.5345C122.763 13.9013 123.475 14.4218 124.05 15.0844L127.613 12.316C126.288 10.7898 124.563 9.68951 122.638 9.09797H122.625C122.563 9.07431 122.488 9.05065 122.413 9.03882C122.388 9.02698 122.363 9.02698 122.338 9.01515C122.288 9.00332 122.225 8.97966 122.175 8.96783C122.138 8.956 122.088 8.94417 122.05 8.93234C122.013 8.92051 121.963 8.90868 121.925 8.89684C121.863 8.88501 121.8 8.87318 121.738 8.84952C121.713 8.84952 121.688 8.83769 121.663 8.83769C121.375 8.77854 121.1 8.73121 120.813 8.69572C120.8 8.69572 120.788 8.69572 120.775 8.69572C120.688 8.68389 120.613 8.67206 120.525 8.67206C120.5 8.67206 120.488 8.67206 120.463 8.66023C120.388 8.6484 120.313 8.6484 120.238 8.63657C120.213 8.63657 120.188 8.63657 120.163 8.62474C120.088 8.62474 120.025 8.61291 119.95 8.61291C119.925 8.61291 119.9 8.61291 119.863 8.61291C119.788 8.61291 119.725 8.60107 119.65 8.60107C119.625 8.60107 119.6 8.60107 119.575 8.60107C119.475 8.60107 119.388 8.60107 119.288 8.60107C119.1 8.60107 118.913 8.60107 118.738 8.61291C113.063 8.88501 108.525 13.3452 108.525 18.7874C108.525 24.2296 113.05 28.6898 118.738 28.9619C118.925 28.9737 119.1 28.9737 119.288 28.9737C119.388 28.9737 119.475 28.9737 119.575 28.9737C119.6 28.9737 119.625 28.9737 119.65 28.9737C119.725 28.9737 119.788 28.9737 119.863 28.9619C119.888 28.9619 119.913 28.9619 119.95 28.9619C120.025 28.9619 120.088 28.9501 120.163 28.9501C120.188 28.9501 120.213 28.9501 120.238 28.9383C120.313 28.9264 120.388 28.9264 120.463 28.9146C120.488 28.9146 120.5 28.9146 120.525 28.9028C120.613 28.8909 120.688 28.8791 120.775 28.8791C120.788 28.8791 120.8 28.8791 120.813 28.8791C121.1 28.8436 121.388 28.7963 121.663 28.7371C121.688 28.7371 121.713 28.7253 121.738 28.7253C121.8 28.7135 121.863 28.7016 121.925 28.678C121.963 28.6661 122.013 28.6543 122.05 28.6425C122.088 28.6307 122.138 28.6188 122.175 28.607C122.225 28.5952 122.288 28.5715 122.338 28.5597C122.363 28.5478 122.388 28.5478 122.413 28.536C122.488 28.5123 122.55 28.5005 122.625 28.4769H122.638C124.563 27.8853 126.288 26.7732 127.613 25.2589L124.05 22.4905C123.488 23.1766 122.775 23.6972 121.975 24.064Z" fill="black"/>
</svg>
